<svg xmlns="http://www.w3.org/2000/svg" viewBox="0 0 283.32 283.32"><defs><style>.cls-1{isolation:isolate;}.cls-2{fill:#aec3ff;}.cls-3,.cls-9{fill:#80a7ff;}.cls-3{stroke:#80a7ff;}.cls-3,.cls-7{stroke-miterlimit:10;}.cls-4,.cls-7{fill:#010843;}.cls-5{fill:#607fd8;}.cls-6{fill:snow;}.cls-7{stroke:#010843;stroke-width:0.5px;}.cls-8{opacity:0.5;mix-blend-mode:multiply;}.cls-10{fill:none;}</style></defs><g class="cls-1"><g id="Layer_2" data-name="Layer 2"><g id="Layer_5" data-name="Layer 5"><path class="cls-2" d="M80.87,143.25c0-.18,20.76-22.55,20.76-22.55l4.06,22.21-12.9,9.53s10.5,7.23,12.93,7.83c.1,0,4.31,17.93,4.31,17.93l-4.67,2.16a3.85,3.85,0,0,1-4.68-3.8l1.27-2.75-20.59-7.89c-7.08-4.4-9-9.86-5-17.17Z"/><ellipse class="cls-3" cx="151.3" cy="233.68" rx="57.62" ry="5.19"/><path class="cls-2" d="M188.72,184c7-21.42-4-42.42-8.87-62.06a40.93,40.93,0,0,0-1.73-6.67c-5.71-16.72-22.37-40.48-34.7-50.44C128,52.33,105.23,62.68,98.06,79.9c-4,9.63,4.65,34.2,3.14,44.48a11.43,11.43,0,0,0,.88,7c1.65,2.15,1.29,6.65,1.29,8.65.12,22.1,9.36,48.5,17.32,72.89.83,2.83,1.73,5.62,2.73,8.3a64.64,64.64,0,0,0,3.37,7.63l-5.24,2.94,17,1.06,9.43-21.66h7.4l.27.65c2-1.25,3.93-2.53,5.89-3.86,8.23-5.45,16.23-10.45,22.65-18.45A60.17,60.17,0,0,0,188.72,184Z"/><path class="cls-4" d="M191.38,166.57a122.77,122.77,0,0,0-8-39.29A230,230,0,0,0,169,96c-5.29-9.49-11.25-18.9-18.73-26.83a42.36,42.36,0,0,0-10.08-8.26A27.39,27.39,0,0,0,126.5,57.7,32.73,32.73,0,0,0,101.35,71a29.68,29.68,0,0,0-5.66,13.54c-1,6.67,0,13.46,1.18,20,1.27,7.09,2.6,14.11,3.24,21.3.63,6.9,1,13.83,1.67,20.73a198.21,198.21,0,0,0,5.11,30,209.51,209.51,0,0,0,7.42,22.25c3.35,8.73,6.53,17.51,9.74,26.3.44,1.21.89,2.43,1.35,3.64.56,1.47,2.95.83,2.38-.66-3-8-5.72-16-8.78-24-2.73-7.07-5.52-14.12-7.77-21.37a168.07,168.07,0,0,1-5.69-25.67c-.87-6-1.48-12-2-18-.53-6.79-.88-13.6-1.76-20.36s-2.47-13.32-3.4-20c-.83-6-1.17-12.38.72-18.23A30.34,30.34,0,0,1,119,61.39,27.22,27.22,0,0,1,133.44,61a26.26,26.26,0,0,1,10.75,5.82c7.72,6.63,13.64,15.38,18.88,24A198.33,198.33,0,0,1,177.78,120c2.33,5.86,4.66,11.67,6.41,17.74a122.15,122.15,0,0,1,4,19.58c.37,3.08.6,6.18.69,9.28.05,1.58,2.52,1.59,2.47,0Z"/><path class="cls-4" d="M121.22,233a40.81,40.81,0,0,0,8.66,1.08c2.88.13,5.76.15,8.63,0,1.58-.07,1.59-2.54,0-2.47-2.79.12-5.59.11-8.37,0a38.25,38.25,0,0,1-8.26-1,1.24,1.24,0,0,0-.66,2.39Z"/><path class="cls-4" d="M139.62,233.53c3.43-7.09,6.22-14.47,9.44-21.66.67-1.5-1.55-2.81-2.23-1.3-3.21,7.19-6,14.57-9.43,21.66-.72,1.49,1.5,2.8,2.22,1.3Z"/><path class="cls-4" d="M121.15,232.29c1-.06,1.87-.89,2.75-1.35s2.32-.72,3.21-1.38a.76.76,0,0,0-.38-1.4c-1.15-.12-2.54.68-3.54,1.21s-2.26,1.14-2.59,2.2a.58.58,0,0,0,.55.72Z"/><path class="cls-2" d="M188.72,184c-7,9.58-17,17.58-27.22,24-2,1.33-3.93,2.61-5.89,3.86l8.66,20.94,18-.65L178,228.92q.45-3.34,1.1-6.89c2.59-10.47,4.59-20.47,7.72-30.19C187.54,189.23,188.17,186.6,188.72,184Z"/><path class="cls-4" d="M179.43,228.41q3.21-12,6.37-24a180.41,180.41,0,0,0,4.89-23.67,95.48,95.48,0,0,0,.69-14.14c0-1.59-2.52-1.6-2.47,0,.46,16.37-4.17,32.05-8.31,47.72-1.19,4.49-2.35,9-3.55,13.46a1.24,1.24,0,0,0,2.38.66Z"/><path class="cls-4" d="M181.54,230.63c-2.84.41-5.72.61-8.58.77a86.91,86.91,0,0,1-8.69.18c-1.59-.07-1.58,2.4,0,2.47a89.12,89.12,0,0,0,8.95-.19c3-.18,6-.42,9-.84a1.25,1.25,0,0,0,.86-1.52,1.27,1.27,0,0,0-1.52-.87Z"/><path class="cls-4" d="M165.38,232.16c-3.33-6.91-6-14.15-8.8-21.28-.61-1.52-3.1-.86-2.48.68,2.92,7.34,5.63,14.79,9.06,21.9.72,1.5,2.94.19,2.22-1.3Z"/><path class="cls-4" d="M177.82,229.21c1.42,1,2.64,2.23,4,3.28.85.65,1.64-.67,1.06-1.37a17.23,17.23,0,0,0-4.24-3.35c-.92-.58-1.7.83-.84,1.44Z"/><path class="cls-4" d="M143.14,210.55a80.74,80.74,0,0,0,17.23.66c1.64-.11,1.65-2.69,0-2.57a77.64,77.64,0,0,1-16.55-.57,1.33,1.33,0,0,0-1.58.9,1.29,1.29,0,0,0,.9,1.58Z"/><path class="cls-2" d="M110.86,122.73l9.06-8.55,1.29,6.45L119,125.32,114,135.62c-1.3,4.94-5.3,9.94-6.3,14.94-1-5,2-9,1.13-13.9.5-3.48,1-7,1.38-9.57Z"/><path class="cls-4" d="M126.81,80.29c.7-.59,1.63-.2,2.36-.64a.88.88,0,0,0,.31-1.16c-.36-.77-1.42-.91-2.17-.81a4.13,4.13,0,0,0-2.13,1,1.16,1.16,0,0,0,0,1.64,1.18,1.18,0,0,0,1.63,0Z"/><path class="cls-4" d="M118,81.25a4,4,0,0,0-2.17.64,2.07,2.07,0,0,0-1.1,2.1.88.88,0,0,0,1,.6,3.88,3.88,0,0,0,1.21-.73,1.8,1.8,0,0,1,1-.3,1.16,1.16,0,0,0,0-2.31Z"/><path class="cls-4" d="M125.44,99.91c-.94-2.24-1.72-4.54-2.51-6.84-.68-2-1.15-4.11-2.45-5.77a1.09,1.09,0,0,0-1.84.76c.13,2.23,1.27,4.45,2,6.53s1.62,4.21,2.53,6.26c.56,1.26,2.77.34,2.24-.94Z"/><path class="cls-4" d="M134.82,96.47c-.93-2.25-1.71-4.55-2.5-6.85-.68-2-1.16-4.11-2.46-5.76-.57-.74-1.89-.12-1.83.76.12,2.22,1.27,4.44,2,6.52s1.62,4.21,2.53,6.27c.55,1.25,2.77.34,2.23-.94Z"/><path class="cls-5" d="M159.83,103a12.62,12.62,0,0,0-1.74-7.44,7,7,0,0,0-6.63-3.3c-3.88.46-6.86,4.1-10,6.64a33.66,33.66,0,0,1-10.1,5.38,38.2,38.2,0,0,1-12,2.72c-4.06.13-8.69-.71-12,1.45a7,7,0,0,0-2.91,6.8,12.51,12.51,0,0,0,3.49,6.79,22,22,0,0,0,9,5.71c8.61-14.1,24.31-19,40.16-15.5A21.71,21.71,0,0,0,159.83,103Z"/><path class="cls-4" d="M161.08,103c.09-3.14-.5-6.44-2.54-8.93a8.2,8.2,0,0,0-7.59-3c-2.93.47-5.31,2.46-7.46,4.36a36.68,36.68,0,0,1-7.94,5.72,51.81,51.81,0,0,1-9.26,3.45,35.59,35.59,0,0,1-10.58,1.1c-2.9-.06-6-.07-8.63,1.46a8.2,8.2,0,0,0-3.91,7c-.1,7.32,7.34,12.58,13.49,14.76a1.27,1.27,0,0,0,1.41-.57,32.91,32.91,0,0,1,16.78-13.82,40.14,40.14,0,0,1,22-1.1,1.28,1.28,0,0,0,1.41-.58,24.17,24.17,0,0,0,2.85-9.88c.08-1.61-2.42-1.61-2.5,0a21.1,21.1,0,0,1-2.51,8.62l1.41-.57c-12.1-2.6-25.14-.59-34.64,7.76a36.36,36.36,0,0,0-6.93,8.31l1.41-.58c-5-1.76-11.12-5.85-11.63-11.64A5.77,5.77,0,0,1,109,109c2.44-1.08,5.33-.79,7.92-.73,6.08.13,11.84-1.48,17.41-3.81a32.58,32.58,0,0,0,7-3.92c2.12-1.59,3.94-3.54,6.07-5.11,2.39-1.75,5.35-2.78,8-.88s3.26,5.41,3.17,8.47C158.53,104.62,161,104.61,161.08,103Z"/><path class="cls-5" d="M117,127.76a26.12,26.12,0,0,0,5.88,1.3c5.3.54,11.61-.8,16.51-2.64A35.89,35.89,0,0,0,153,118a26,26,0,0,0,4.14-5.73C141.3,108.8,125.6,113.66,117,127.76Z"/><path class="cls-4" d="M116.66,129c7.73,2.6,15.94,1.32,23.44-1.48s14.23-7.45,18.13-14.59a1.25,1.25,0,0,0-.75-1.83c-12.1-2.6-25.14-.59-34.64,7.76a36.36,36.36,0,0,0-6.93,8.31c-.85,1.37,1.31,2.62,2.16,1.26a32.91,32.91,0,0,1,16.78-13.82,40.14,40.14,0,0,1,22-1.1l-.75-1.84c-3.66,6.69-10,11-17,13.58s-14.52,3.76-21.73,1.34C115.79,126,115.14,128.45,116.66,129Z"/><path class="cls-6" d="M111.4,108.28a8.17,8.17,0,0,0,1.75,4.33,2.48,2.48,0,0,0,1.59.81,2.44,2.44,0,0,0,2.28-2.13,7.18,7.18,0,0,0-.47-3.35"/><path class="cls-4" d="M110.4,108.28c.25,2.53,1.23,6.37,4.49,6.33a3.5,3.5,0,0,0,3-2.12,6.52,6.52,0,0,0-.18-4.87,1.19,1.19,0,0,0-2.29.63,6.39,6.39,0,0,1,.45,2.82c-.17.77-.74,1.43-1.53,1-1.21-.69-1.6-2.82-2-4-.3-1-2.08-.89-2,.27Z"/><path class="cls-6" d="M148.56,94.53A8.15,8.15,0,0,1,150,99a2.17,2.17,0,0,1-3.8,1.52,7.24,7.24,0,0,1-1.81-2.86"/><path class="cls-4" d="M147.7,95c.4,1,2.16,4.25.57,4.86s-2.37-2-2.82-2.87c-.59-1.19-2.63-.36-2.17.91.88,2.38,3.11,5.4,6.05,4.1,3.33-1.47,1.63-5.89.09-8a1,1,0,0,0-1.72,1Z"/><path class="cls-7" d="M150.52,92.61s8.2,9.41,7.34,16.91c0,0,3.64-4.14.51-13.18a1.8,1.8,0,0,0-1-1.07Z"/><path class="cls-7" d="M108.1,108.2s-.16,12.47,5.35,17.63c0,0-5.45-.8-8.92-9.72a1.75,1.75,0,0,1,.1-1.48Z"/><path class="cls-2" d="M193.68,94.67c-.81.26-29.78,8.8-29.78,8.8l6,9.82Z"/><path class="cls-2" d="M153.25,58.55a107.24,107.24,0,0,0,15.63,14.18c2.8,2.12,5.65,4.18,8.61,6.06a21.56,21.56,0,0,1,2.6,1.66c-.47-.42.13.25.15.39a12.46,12.46,0,0,1-.4,4.61A22.38,22.38,0,0,1,176,92.63c-3.2,4.06-8.54,7.24-10.95,11.91-4.1,7.95,4.36,17.53,12.63,12.63,2.52-1.5,4.2-3.81,6.19-5.88a72.47,72.47,0,0,0,8.21-9.71c4.55-6.75,7.26-15.42,5.41-23.53-1.75-7.64-7-11.14-13.51-14.46-7.6-3.86-15.45-8.13-21.51-14.2s-14.64,3-9.17,9.16Z"/><path class="cls-2" d="M178.05,117.66c6.23-6.7,15.67-15.84,18.64-24.5s1.47-19.38-5.73-25c-5.22-4.1-11.37-6.63-19.86-11.44-3.06-1.73-4.62-3.84-7-6.39s-6.17-4.45-9.39-3.06c-2.92,1.26-4.26,4.88-3.75,8s2.48,5.84,4.64,8.17c5.1,5.49,11.21,8.78,18,11.8,6.35,2.84,7.09,7.55,4.59,14.21A20.2,20.2,0,0,1,169,100"/><path class="cls-4" d="M178.92,118.54c4.25-4.57,8.66-9,12.49-13.94,3.52-4.54,6.54-9.49,7.52-15.22a25.7,25.7,0,0,0-2.14-16c-2.49-4.82-6.92-7.8-11.51-10.41-2.59-1.47-5.26-2.83-7.89-4.22-2.94-1.55-6.17-3-8.63-5.26-2.28-2.11-4-4.77-6.74-6.39a8.59,8.59,0,0,0-8-.88,8,8,0,0,0-4.31,6,11.88,11.88,0,0,0,1.92,8.26c3.34,5.34,8.8,9.39,14.24,12.4,1.54.86,3.12,1.65,4.72,2.4a34,34,0,0,1,4.39,2.2,6.8,6.8,0,0,1,3.19,5.88c0,6.41-4.44,12.55-9.87,15.59a1.24,1.24,0,0,0,1.25,2.14,22,22,0,0,0,10.3-13c1.25-4.17,1.16-8.79-2.39-11.8-2.07-1.75-4.69-2.65-7.1-3.83A59.27,59.27,0,0,1,162.71,68a37.64,37.64,0,0,1-6.82-6c-2-2.21-3.84-5-3.83-8,0-2.57,1.44-5.39,4.2-5.82,3-.48,5.64,1.69,7.53,3.73a29.68,29.68,0,0,0,6.31,5.74c2.79,1.68,5.73,3.14,8.61,4.66,4.51,2.36,9.62,4.7,13.18,8.44s5.06,9.06,5,14.15c-.14,13.31-11.32,23-19.72,32-1.08,1.16.67,2.92,1.75,1.75Z"/><g class="cls-8"><path class="cls-9" d="M179.89,117c8-8.79,17.51-18.7,18.87-31.08a21.18,21.18,0,0,0-6.26-17.17C187.81,64.09,181.58,61,175.73,58a30,30,0,0,1-5.15-3c-1.38-1.1-2.53-2.5-3.85-3.67a17.76,17.76,0,0,0-10.68-4.93,2.5,2.5,0,0,0,0,5c2.9.21,5.33,1.8,7.42,3.71,1.07,1,2,2.07,3.13,3a22.34,22.34,0,0,0,4.42,3c5.39,2.92,11.22,5.42,16,9.35,4.27,3.53,7.07,8.27,6.86,13.91-.2,5.36-2.87,10.42-5.78,14.8a122,122,0,0,1-11.74,14.23c-2.16,2.38,1.36,5.92,3.54,3.54Z"/></g><path class="cls-4" d="M160.69,39.12a14,14,0,0,1,9.81,9.12,1.23,1.23,0,1,0,2.38-.66,16.53,16.53,0,0,0-11.53-10.85,1.24,1.24,0,0,0-.66,2.39Z"/><path class="cls-4" d="M171,38.75l.35.12.09,0c.2.1.4.2.59.31a4.39,4.39,0,0,1,.51.32,2.2,2.2,0,0,1,.25.17c.07,0,.06,0,0,0l.09.07a7.39,7.39,0,0,1,1.59,1.81c.1.17.2.35.29.53s.1.18.14.27l.07.15a7.12,7.12,0,0,1,.39,1.21c.05.21.09.43.13.65,0-.13,0-.06,0,0l0,.36c0,.2,0,.4,0,.61s0,.24,0,.36,0,.39,0,.15a1.28,1.28,0,0,0,.87,1.52,1.24,1.24,0,0,0,1.52-.86,9.48,9.48,0,0,0-6.21-10.21,1.24,1.24,0,0,0-.66,2.39Z"/><path class="cls-4" d="M143.35,54.77a9.61,9.61,0,0,1-.39-1.49c0-.14,0-.14,0,0a1.5,1.5,0,0,1,0-.22l0-.33a7.48,7.48,0,0,1,0-.82c0-.13,0-.26,0-.39l0-.22c0-.12,0-.14,0,0s0,.07,0-.06,0-.14,0-.21,0-.25.08-.38.13-.5.21-.74.09-.24.14-.36.05-.14,0,0l.09-.2a1.27,1.27,0,0,0-.44-1.69,1.24,1.24,0,0,0-1.69.44,9.67,9.67,0,0,0-.41,7.39,1.26,1.26,0,0,0,1.52.86,1.25,1.25,0,0,0,.86-1.52Z"/><path class="cls-4" d="M151.22,87.3a7.09,7.09,0,0,1,2.5-.41,6.85,6.85,0,0,1,2.28.48,6.59,6.59,0,0,1,3.21,2.86A1.24,1.24,0,0,0,161.34,89a9.08,9.08,0,0,0-10.78-4.06,1.26,1.26,0,0,0-.86,1.52,1.24,1.24,0,0,0,1.52.86Z"/><path class="cls-2" d="M110.46,67.88A74.2,74.2,0,0,1,125,44.37a76.34,76.34,0,0,1-6.16,19.09l7.31-8.56c.49-.57,1.17-1.2,1.88-1,1.16.4.53,2.16-.28,3.08l-5.45,6.21"/><path class="cls-4" d="M111.66,68.21a73.42,73.42,0,0,1,14.23-23L123.8,44a76.29,76.29,0,0,1-6,18.8c-.57,1.19,1,2.67,2,1.51l4-4.64,1.83-2.14a13.93,13.93,0,0,0,1.87-2.14c.19-.12.2-.3,0-.52a.53.53,0,0,1,0,.22c-.17.2-.23.6-.39.83a21.3,21.3,0,0,1-1.65,1.91l-3.94,4.49c-1.06,1.2.7,3,1.77,1.76C125,62,127,60,128.72,57.8c1-1.26,1.93-3.56.29-4.73-2.16-1.56-4.08,1.34-5.27,2.73L118,62.57l2,1.52a78.69,78.69,0,0,0,6.29-19.39c.21-1.14-1.18-2.22-2.09-1.22a76.66,76.66,0,0,0-14.87,24.07c-.58,1.5,1.84,2.15,2.41.66Z"/><path class="cls-4" d="M99.86,120.15a196,196,0,0,0-22.23,25.41c-2.91,4-5.83,8.82-3.71,13.88,1.81,4.32,6.16,6.95,10.13,9a101.55,101.55,0,0,0,18.16,7.31,1.24,1.24,0,0,0,.66-2.38,98.07,98.07,0,0,1-15.08-5.82c-3.9-1.89-8.57-4-11-7.85-2.79-4.48.13-9,2.81-12.73,3.06-4.27,6.37-8.34,9.83-12.29q5.81-6.64,12.14-12.8c1.14-1.11-.61-2.86-1.75-1.75Z"/><path class="cls-4" d="M101.81,173.8a7,7,0,0,0-1.88,3.28,3.79,3.79,0,0,0,1.06,3.37,5.76,5.76,0,0,0,6,1.11,7.91,7.91,0,0,0,2.7-1.77,1.23,1.23,0,0,0,0-1.75,1.26,1.26,0,0,0-1.74,0l-.69.58-.21.18c.27-.22,0,0-.09,0s-.3.18-.46.27.15,0,0,0l-.31.1q-.33.09-.66.15l-.45.07c.26,0,0,0-.09,0h-.4c-.07,0-.49-.07-.18,0a4,4,0,0,1-.68-.17l-.19-.07c.14.06.15.06,0,0l-.27-.14a3.62,3.62,0,0,1-.32-.22c.24.18-.08-.08-.12-.12l-.2-.21c.21.22,0-.07-.08-.14s-.15-.42-.07-.13a2.76,2.76,0,0,0-.08-.27c0-.14,0-.12,0,0a1.34,1.34,0,0,1,0-.2v-.25c0,.13,0,.12,0,0s.07-.23.1-.35.06-.16,0-.05a2.26,2.26,0,0,1,.11-.22,6.45,6.45,0,0,1,1-1.39,1.26,1.26,0,0,0,0-1.75,1.24,1.24,0,0,0-1.74,0Z"/><path class="cls-4" d="M92.17,153.51c2.08,1,4.17,2,6.16,3.11a39.69,39.69,0,0,1,5.46,3.92,1.26,1.26,0,0,0,1.74,0,1.24,1.24,0,0,0,0-1.75,43.86,43.86,0,0,0-5.82-4.23c-2-1.19-4.17-2.17-6.29-3.18a1.28,1.28,0,0,0-1.7.44,1.25,1.25,0,0,0,.45,1.69Z"/><path class="cls-4" d="M94.76,153.73c2.8-2.6,5.7-5.1,8.74-7.43a1.28,1.28,0,0,0,.45-1.69,1.25,1.25,0,0,0-1.7-.44Q97.45,147.86,93,152a1.23,1.23,0,1,0,1.75,1.74Z"/><rect class="cls-10" width="283.32" height="283.32"/></g></g></g></svg>